<svg width="24" height="24" viewBox="0 0 24 24" fill="none" xmlns="http://www.w3.org/2000/svg">
<path d="M12.9181 0.400781C12.3459 -0.133594 11.4621 -0.133594 10.8946 0.400781L0.47472 10.1508C0.0281554 10.5727 -0.1207 11.2242 0.102583 11.7961C0.325865 12.368 0.870116 12.7477 1.48414 12.7477H2.22842V20.9977C2.22842 22.6523 3.56346 23.9977 5.20552 23.9977H18.6025C20.2445 23.9977 21.5796 22.6523 21.5796 20.9977V12.7477H22.3238C22.9379 12.7477 23.4868 12.368 23.71 11.7961C23.9333 11.2242 23.7845 10.568 23.3379 10.1508L12.9181 0.400781ZM11.1597 14.9977H12.6483C13.881 14.9977 14.8811 16.0055 14.8811 17.2477V21.7477H8.92689V17.2477C8.92689 16.0055 9.92701 14.9977 11.1597 14.9977Z" fill="#8E8C6F"/>
</svg>
