<svg width="23" height="26" viewBox="0 0 23 26" fill="none" xmlns="http://www.w3.org/2000/svg">
<path d="M8.21429 5.6875C8.21429 3.89492 9.68772 2.4375 11.5 2.4375C13.3123 2.4375 14.7857 3.89492 14.7857 5.6875V8.125H8.21429V5.6875ZM5.75 8.125H2.46429C1.10379 8.125 0 9.2168 0 10.5625V21.125C0 23.8164 2.20759 26 4.92857 26H18.0714C20.7924 26 23 23.8164 23 21.125V10.5625C23 9.2168 21.8962 8.125 20.5357 8.125H17.25V5.6875C17.25 2.54414 14.6779 0 11.5 0C8.3221 0 5.75 2.54414 5.75 5.6875V8.125ZM6.98214 10.5625C7.66496 10.5625 8.21429 11.1059 8.21429 11.7812C8.21429 12.4566 7.66496 13 6.98214 13C6.29933 13 5.75 12.4566 5.75 11.7812C5.75 11.1059 6.29933 10.5625 6.98214 10.5625ZM14.7857 11.7812C14.7857 11.1059 15.335 10.5625 16.0179 10.5625C16.7007 10.5625 17.25 11.1059 17.25 11.7812C17.25 12.4566 16.7007 13 16.0179 13C15.335 13 14.7857 12.4566 14.7857 11.7812Z" fill="#8E8C6F"/>
</svg>
